#define frame_0594_width 128
#define frame_0594_height 64
static const uint8_t frame_0594_bits[] = {
0x00,0x00,0x00,0x00,0x00,0x00,0x00,0x00,0xc0,0xff,0xff,0x00,0x00,0x00,0x00,
0x00,0x00,0x00,0x00,0x00,0x00,0x00,0x00,0x00,0x80,0xff,0xff,0x01,0x00,0x00,
0x00,0x00,0x00,0x00,0x00,0x00,0x00,0x00,0x00,0x00,0x00,0xff,0xff,0x01,0x00,
0x00,0x00,0x00,0x00,0x00,0x00,0x00,0x00,0x00,0x00,0x00,0x00,0xf0,0xfc,0x03,
0x00,0x00,0x00,0x00,0x00,0x00,0x00,0x00,0x00,0x00,0x00,0x00,0x00,0x00,0xf8,
0x07,0x00,0x00,0x00,0x00,0x00,0x00,0x00,0x00,0x00,0x00,0x00,0x00,0x00,0x00,
0xf0,0x0f,0x00,0x00,0x00,0x00,0x00,0x00,0x00,0x00,0x00,0x00,0x00,0x00,0x00,
0x00,0xe0,0x1f,0x00,0x00,0x00,0x00,0x00,0x00,0x00,0x00,0x00,0x00,0x00,0x00,
0x00,0x00,0xc0,0x3f,0x00,0x00,0x00,0x00,0x00,0x00,0x00,0x00,0x00,0x00,0x00,
0x00,0x00,0x00,0x80,0x7f,0x00,0x00,0x00,0x00,0x00,0x00,0x00,0x00,0x00,0x00,
0x00,0x00,0x00,0x00,0x00,0xff,0x00,0x00,0x00,0x00,0x00,0x00,0x00,0x00,0x00,
0x00,0x00,0x00,0x00,0x00,0x00,0xfc,0x03,0x00,0x00,0x00,0x00,0x00,0x00,0x00,
0x00,0x00,0x00,0x00,0x00,0x00,0x00,0xf8,0x3f,0x00,0x00,0x00,0x00,0x00,0x00,
0x00,0x00,0x00,0x00,0x00,0x00,0x00,0x00,0xc0,0xff,0x01,0x00,0x00,0x00,0x00,
0x00,0x00,0x00,0x00,0x00,0x00,0x00,0x00,0x00,0x00,0xff,0x07,0x00,0x00,0x00,
0x00,0x00,0x00,0x00,0x00,0x00,0x00,0x00,0x00,0x00,0x00,0xe0,0x1f,0x00,0x00,
0x00,0x00,0x00,0x00,0x00,0x00,0x00,0x00,0x00,0x00,0x00,0x00,0x00,0x7c,0x00,
0x00,0x00,0x00,0x00,0x00,0x00,0x00,0x00,0x00,0x00,0x00,0x00,0x00,0x00,0xf0,
0x07,0x00,0x00,0x00,0x00,0x00,0x00,0x00,0x00,0x00,0x00,0x00,0x00,0x00,0x00,
0xc0,0x0f,0x00,0x00,0x00,0x00,0x00,0x00,0x00,0x00,0x00,0x00,0x00,0x00,0x00,
0x00,0x80,0x07,0x00,0x00,0x00,0x00,0x00,0x00,0x00,0x00,0x00,0x00,0x00,0x00,
0x00,0x00,0x00,0x00,0x00,0x00,0x00,0x00,0x00,0x00,0x00,0x00,0x00,0x00,0x00,
0x00,0x00,0x00,0x00,0x00,0x00,0x00,0x00,0x00,0x00,0x00,0x00,0x00,0x00,0x00,
0x00,0x00,0x00,0x00,0x00,0x00,0x00,0x00,0x00,0x00,0x00,0x00,0x00,0x00,0x00,
0x00,0x00,0x00,0x00,0x00,0x00,0x00,0x00,0x00,0x00,0x00,0x00,0x00,0x00,0x00,
0x00,0x00,0x80,0x01,0x00,0x00,0x00,0x00,0x00,0x00,0x80,0x07,0x00,0x00,0x00,
0x00,0x00,0x00,0xfc,0x03,0x00,0x00,0x00,0x00,0x00,0x00,0xc0,0x0f,0x00,0x00,
0x00,0x00,0x00,0xc0,0xff,0x03,0x00,0x00,0x00,0x00,0x00,0x00,0xc0,0x1f,0x00,
0x00,0x00,0xe0,0xff,0xff,0xff,0x7f,0x00,0x00,0x00,0x00,0x00,0x00,0xc0,0x0f,
0x00,0xf0,0xff,0xff,0xff,0xff,0xff,0xff,0x03,0x00,0x00,0x00,0x00,0x00,0xc0,
0x0f,0x80,0xff,0xff,0x01,0x00,0xf0,0xff,0x1f,0x03,0x00,0x00,0x00,0x00,0x00,
0xc0,0x0f,0x80,0x00,0x00,0x00,0x00,0xf0,0xff,0x1f,0x03,0x00,0x00,0x00,0x00,
0x00,0xe0,0x0f,0x00,0x00,0x00,0x00,0x00,0xf0,0xff,0x1f,0x01,0x00,0x00,0x00,
0x00,0x00,0xe0,0x0f,0x00,0x00,0x00,0x00,0x00,0x80,0xff,0x3f,0x00,0x00,0x00,
0x00,0x00,0x00,0xf0,0x1f,0x00,0x00,0x00,0x00,0x00,0x00,0xff,0x3f,0x00,0x00,
0x00,0x00,0x00,0x00,0xf8,0x7f,0x00,0x00,0x00,0x00,0x00,0x00,0xff,0x3f,0x00,
0x00,0x00,0x00,0x00,0x00,0xf8,0x7f,0x00,0x00,0x00,0x00,0x00,0x00,0xff,0x1f,
0x00,0x00,0x00,0x00,0x00,0x00,0xf0,0x0f,0x00,0x00,0x00,0x00,0x00,0x00,0xff,
0x0f,0x00,0x00,0x00,0x00,0x00,0x00,0xf0,0x0f,0x00,0x00,0x00,0x00,0x00,0x00,
0xfe,0x07,0x00,0x00,0x00,0x00,0x00,0x00,0xf0,0x1f,0x00,0x00,0x00,0x00,0x00,
0x00,0xfe,0x03,0x00,0x00,0x00,0x00,0x00,0x00,0xe0,0x1f,0x00,0x00,0x00,0x00,
0x00,0x00,0xff,0x03,0x00,0x00,0x00,0x00,0x00,0x00,0xe0,0x1f,0x00,0x00,0x00,
0x00,0x00,0x00,0xff,0x07,0x00,0x00,0x00,0x00,0x00,0x00,0xf0,0x1f,0x00,0x00,
0x00,0x00,0x00,0x00,0xff,0x07,0x00,0x00,0x00,0x00,0x00,0x00,0xf0,0x3f,0x00,
0x00,0x00,0x00,0x00,0x80,0xff,0x07,0x40,0x00,0x00,0x00,0x00,0x00,0xf0,0x3f,
0x00,0x00,0x00,0x00,0x00,0x80,0xff,0x07,0xfc,0x00,0x00,0x00,0x00,0x00,0xf8,
0x7f,0x00,0x00,0x00,0xe0,0x01,0x00,0xff,0x87,0x7f,0x00,0x00,0x00,0x00,0x00,
0xe0,0x0c,0x00,0x00,0x00,0x00,0x0f,0x81,0xff,0xff,0x0f,0x00,0x00,0x00,0x00,
0x00,0xe0,0x1c,0x00,0x00,0x00,0x00,0xf0,0xc3,0xff,0xff,0x00,0x00,0x00,0x00,
0x00,0xf8,0xff,0x01,0x00,0x00,0x00,0x00,0xc0,0xff,0xff,0x0f,0x00,0x00,0x00,
0x00,0x00,0xff,0x03,0x00,0x00,0x00,0x00,0x00,0x80,0xf8,0xff,0x03,0x00,0x00,
0x00,0x00,0x00,0x00,0x00,0x00,0x00,0x00,0x00,0x00,0x00,0xf8,0xff,0x07,0x00,
0x00,0x00,0x00,0x00,0x00,0x00,0x00,0x00,0x00,0x00,0x00,0x00,0xfe,0xff,0x0f,
0x00,0x00,0x00,0x00,0x00,0x00,0x00,0x00,0x00,0x00,0x00,0x40,0xe0,0xff,0xff,
0xff,0x00,0x00,0x00,0x00,0x00,0x00,0x00,0x00,0x00,0x00,0x00,0xc0,0xfe,0xff,
0xff,0xff,0x3f,0x00,0x00,0x00,0x00,0x00,0x00,0x00,0x00,0x00,0x00,0xf0,0xdf,
0xff,0xff,0x1f,0xfc,0x07,0x00,0x00,0x00,0x00,0x00,0x00,0x00,0x00,0x00,0xfe,
0xc1,0xff,0xff,0x3f,0x80,0x07,0x00,0x00,0x00,0x00,0x00,0x00,0x00,0x00,0x00,
0x00,0xf0,0xff,0xff,0xff,0x00,0x00,0x00,0x00,0x00,0x00,0x00,0x00,0x00,0x00,
0x00,0x00,0xf8,0xff,0xff,0xff,0x01,0x00,0x00,0x00,0x00,0x00,0x00,0x00,0x00,
0x00,0x00,0x00,0xfc,0xff,0xff,0xff,0x03,0x00,0x00,0x00,0x00,0x00,0x00,0x00,
0x00,0x00,0x00,0x00,0xff,0xff,0xff,0xff,0x07,0x00,0x00,0x00,0x00,0x00,0x00,
0x00,0x00,0x00,0x00,0x00,0xff,0xff,0xff,0xff,0x1f,0x00,0x00,0x00,0x00,0x00,
0x00,0x00,0x00,0x00,0x00,0x80,0xff,0xff,0xff,0xff,0x3f,0x00,0x00,0x00,0x00,
0x00,0x00,0x00,0x00,0x00,0x00,0xc0,0xff,0xff,0xff,0xff,0x7f,0x00,0x00,0x00,
0x00,0x00,0x00,0x00,0x00,0x00,0x00,0xc0,0xff,0xff,0xff,0xff,0x3f,0x00,0x00,
0x00,0x00,0x00,0x00,0x00,0x00,0x00,0x00,0xe0,0xf1,0xff,0xff,0xff,0x1f,0x00,
0x00,0x00,0x00,0x00,0x00,0x00,0x00,0x00,0x00,0xf0,0xc0,0xff,0xff,0xff,0x0f,
0x00,0x00,0x00,0x00
};
