#define frame_0576_width 128
#define frame_0576_height 64
static const uint8_t frame_0576_bits[] = {
0xff,0xff,0xff,0xff,0xff,0x2f,0x00,0x00,0x00,0x00,0x00,0x20,0xfe,0x07,0x00,
0x00,0xff,0xff,0xff,0xff,0xff,0x2f,0x04,0x00,0x00,0x00,0x00,0x70,0xfe,0x07,
0x00,0x00,0xff,0xff,0xff,0xff,0xff,0x7f,0x07,0x00,0x00,0x00,0x00,0xf8,0xff,
0x0f,0x00,0x80,0xff,0xff,0xff,0xff,0xff,0x7f,0x07,0x00,0x00,0x80,0x01,0xff,
0xff,0x0f,0x00,0xc0,0xff,0xff,0xff,0xff,0xff,0xff,0x07,0x00,0x80,0x84,0x91,
0xff,0xff,0x0f,0x00,0xc0,0xff,0xff,0xff,0xff,0xff,0xff,0x17,0x00,0x00,0xc4,
0xd1,0xff,0xff,0x0f,0x00,0xc0,0xff,0xff,0xff,0xff,0xff,0xff,0x3f,0x00,0x00,
0xe6,0xd5,0xff,0xff,0x1f,0x00,0xc0,0xff,0xff,0xff,0xff,0xff,0xff,0x1f,0x00,
0x00,0xfe,0xf7,0xff,0xff,0x1f,0x00,0xe0,0xfe,0xff,0xff,0xff,0xff,0xff,0x01,
0x00,0x00,0xc0,0xff,0xff,0xfb,0x1f,0x00,0x00,0xe0,0xff,0xff,0xc0,0xff,0x0f,
0x00,0x00,0x00,0x00,0xfc,0xff,0x01,0x00,0x00,0x00,0x00,0x00,0x00,0x80,0xff,
0x01,0x00,0x00,0x00,0x00,0xe0,0xff,0x00,0x00,0x00,0x00,0x00,0x00,0x00,0x00,
0x7f,0x00,0x00,0x00,0x00,0x00,0x80,0x7f,0x00,0x00,0x00,0x00,0x00,0x00,0x00,
0x00,0x1e,0x00,0x00,0x00,0x00,0x00,0x00,0x3f,0x00,0x00,0x00,0x3c,0xfc,0xff,
0x07,0x00,0x04,0x00,0x00,0x00,0x00,0x00,0x00,0x1c,0x60,0x00,0x00,0x1c,0xf0,
0xff,0x01,0x06,0x00,0x00,0x00,0x00,0x00,0x00,0x00,0x08,0x70,0x00,0x00,0x0e,
0xf0,0xff,0x00,0x0e,0x00,0x00,0x00,0x00,0x00,0x00,0x00,0x00,0x78,0x00,0x40,
0x0f,0xe0,0x7f,0x00,0x3c,0x00,0x00,0x00,0x00,0x00,0x00,0x00,0x00,0x3c,0x00,
0xe0,0x07,0xe0,0x3f,0x00,0x3c,0x00,0x00,0x00,0x00,0x00,0x00,0x00,0x00,0x18,
0x00,0xe0,0x07,0xc0,0x3f,0x00,0x08,0x00,0x00,0x00,0x00,0x00,0x00,0x00,0x00,
0x00,0x00,0xf0,0x03,0xc0,0x1f,0x00,0x00,0x00,0x00,0x00,0x00,0x00,0x00,0x00,
0x00,0x00,0x00,0xf8,0x03,0xc0,0x0f,0x00,0x00,0x00,0x00,0x00,0x00,0x00,0x00,
0x00,0x00,0x00,0x00,0xf0,0x07,0xc0,0x0f,0x00,0x00,0x00,0x00,0x00,0x00,0x00,
0x00,0x00,0x00,0x00,0x00,0xf8,0x07,0xe0,0x1f,0x00,0x00,0x00,0x00,0x00,0x00,
0x00,0x00,0x00,0x00,0x00,0x00,0xf8,0x0f,0xe0,0x1f,0x00,0x00,0x00,0x00,0x00,
0x00,0x00,0x00,0x00,0x00,0x00,0x00,0xf8,0x0f,0xf0,0x1f,0x00,0x00,0x00,0x00,
0x00,0x00,0x00,0x00,0x00,0x00,0x00,0x00,0xfc,0x1f,0xf0,0x3f,0x00,0x00,0x00,
0x00,0x00,0x00,0x00,0x00,0x00,0x00,0x00,0x00,0xfc,0x1f,0xf0,0x3f,0x00,0x00,
0x00,0x00,0x00,0x00,0x00,0x00,0x00,0x00,0x00,0x00,0xfc,0x1f,0xf8,0x3f,0x00,
0x00,0x00,0x00,0x00,0x00,0x00,0x00,0x00,0x00,0x00,0x00,0xfc,0x3f,0xf8,0x7f,
0x00,0x00,0x00,0x00,0x00,0x00,0x00,0x00,0x00,0x00,0x00,0x00,0xfe,0x3f,0xfc,
0x7f,0x00,0x00,0x00,0x00,0x00,0x00,0x00,0x00,0x00,0x00,0x00,0x00,0xfe,0x7f,
0xfc,0x7f,0x00,0x00,0x00,0x00,0x00,0x00,0x00,0x00,0x00,0x00,0x00,0x00,0xfe,
0x7f,0xfe,0xff,0x00,0x00,0x00,0x00,0x00,0x00,0x00,0x00,0x00,0x00,0x00,0x00,
0xff,0xff,0xfe,0xff,0x00,0x00,0x00,0x00,0x00,0x60,0xfc,0xff,0xff,0xff,0xff,
0xff,0xff,0xff,0xff,0xff,0xe1,0xff,0xff,0xff,0xff,0xff,0xff,0xff,0xff,0xff,
0xff,0xff,0xff,0xff,0xff,0xff,0xff,0xff,0xff,0xff,0xff,0xff,0xff,0xff,0xff,
0xff,0xff,0xff,0xff,0xff,0xff,0xff,0xff,0xff,0xff,0xff,0xff,0xff,0xff,0xff,
0xff,0xff,0xff,0xff,0xff,0xff,0xff,0xff,0xff,0xff,0xff,0xff,0xff,0xff,0xff,
0xff,0xff,0xff,0xff,0xff,0xff,0xff,0xff,0xff,0xff,0xff,0xff,0xff,0xff,0xff,
0xff,0xff,0xff,0xff,0xff,0xff,0xff,0xff,0xff,0xff,0xff,0xff,0xff,0xff,0xff,
0xff,0xff,0xff,0xff,0xff,0xff,0xff,0xff,0xff,0xff,0xff,0xff,0xff,0x07,0x00,
0x00,0x00,0x00,0x00,0x00,0x00,0x00,0xc0,0xff,0xff,0xff,0xff,0x03,0x00,0x00,
0x00,0x00,0x00,0x00,0x00,0x00,0x00,0x00,0xf0,0xff,0xff,0xff,0xff,0x03,0x00,
0x00,0x00,0x00,0x00,0x00,0x00,0x00,0x00,0x00,0xf0,0xff,0xff,0xff,0xff,0x01,
0x00,0x00,0x00,0x00,0x00,0x00,0x00,0x00,0x00,0x00,0xe0,0xff,0xff,0xff,0xff,
0x01,0x00,0x00,0x00,0x00,0x00,0x00,0x00,0x00,0x00,0x00,0xe0,0xff,0xff,0xff,
0xff,0x00,0x00,0x00,0x00,0x00,0x00,0x00,0x00,0x00,0x00,0x00,0xc0,0xff,0xff,
0xff,0xff,0x00,0x00,0x00,0x00,0x00,0x00,0x00,0x00,0x00,0x00,0x00,0xc0,0xff,
0xff,0xff,0xff,0x00,0x00,0x00,0x00,0x00,0x00,0x00,0x00,0x00,0x00,0x00,0x80,
0xff,0xff,0xff,0x7f,0x00,0x00,0x00,0x00,0x00,0x00,0x00,0x00,0x00,0x00,0x00,
0x80,0xff,0xff,0xff,0x7f,0x00,0x00,0x00,0x00,0x00,0x00,0x00,0x00,0x00,0x00,
0x00,0x80,0xff,0xff,0xff,0x3f,0x00,0x00,0x00,0x00,0x00,0x00,0x00,0x00,0x00,
0x00,0x00,0x00,0xff,0xff,0xff,0x3f,0x00,0x00,0x01,0x00,0x00,0x00,0x00,0x00,
0x00,0x00,0x00,0x00,0xff,0xff,0xff,0x3f,0x00,0x80,0x01,0x00,0x00,0x00,0x00,
0x00,0x00,0x00,0x00,0x00,0xff,0xff,0xff,0x3f,0x00,0x80,0x01,0x00,0x00,0x00,
0x00,0x00,0x00,0x00,0x00,0x00,0xff,0xff,0xff,0x1f,0x00,0xc0,0x01,0x00,0x00,
0x00,0x00,0x00,0x00,0x00,0x00,0x00,0xfe,0xff,0xff,0x1f,0x00,0xc0,0x01,0x00,
0x00,0x00,0x00,0x00,0x00,0xc0,0x00,0x00,0xfe,0xff,0xff,0x0f,0x00,0xe0,0x01,
0x00,0x00,0x00,0x00,0x00,0x00,0xc0,0x00,0x00,0xfe,0xff,0xff,0x01,0x00,0xe0,
0x01,0x00,0x00,0x00,0x00,0x00,0x00,0xc0,0x01,0x00,0xe0,0xff,0x3f,0x00,0x00,
0xf0,0x01,0x00,0x00,0x00,0x00,0x00,0x00,0xc0,0x03,0x00,0x00,0xff,0x07,0x00,
0x00,0xf8,0x03,0x00,0x00,0x00,0x00,0x00,0x00,0xc0,0x03,0x00,0x00,0xf8,0x01,
0x00,0x00,0xf8,0x03,0x00,0x00,0x00,0x00,0x00,0x00,0xc0,0x07,0x00,0x00,0xc0,
0x00,0x00,0x00,0xfc,0x01,0x00,0x00,0x00,0x00,0x00,0x00,0xc0,0x07,0x00,0x00,
0x00,0x00,0x00,0x00,0xfe,0x01,0x00,0x00,0x00,0x00,0x00,0x00,0xc0,0x0f,0x00,
0x00,0x00,0x00,0x00,0x00,0xff,0x01,0x00,0x00,0x00,0x00,0x00,0x00,0xc0,0x1f,
0x00,0x00,0x00,0x00,0x00,0x80,0xff,0x01,0x00,0x00,0x00,0x00,0x00,0x00,0xc0,
0x3f,0x00,0x00,0x00
};
