#define frame_0430_width 128
#define frame_0430_height 64
static const uint8_t frame_0430_bits[] = {
0x00,0x00,0x00,0x00,0x00,0x00,0x00,0x00,0x00,0x00,0x00,0x00,0x00,0x00,0x00,
0x00,0x00,0x00,0x00,0x00,0x00,0x00,0x00,0x00,0x00,0x00,0x00,0x00,0x00,0x00,
0x00,0x00,0x00,0x00,0x00,0x00,0x00,0x00,0x00,0x00,0x00,0x00,0x00,0x00,0x00,
0x00,0x00,0x00,0x00,0x00,0x00,0x00,0x00,0x00,0x00,0x00,0x00,0x00,0x00,0x00,
0x00,0x00,0x00,0x00,0x00,0x00,0x00,0x08,0x00,0x00,0x00,0x00,0x00,0x00,0x00,
0x00,0x00,0x00,0x00,0x00,0x00,0x00,0x00,0x0e,0x00,0x00,0x00,0x00,0x00,0x00,
0x00,0x00,0x00,0x00,0x00,0x00,0x00,0x00,0x00,0x07,0x00,0x00,0x00,0x00,0x00,
0x00,0x00,0x00,0x00,0x00,0x00,0x00,0x00,0x00,0xc0,0x03,0x00,0x00,0x00,0x00,
0x00,0x00,0x00,0x00,0x00,0x00,0x00,0x00,0x00,0x00,0xf0,0x00,0x00,0x00,0x00,
0x00,0x00,0x00,0x00,0x00,0x00,0x00,0x00,0x00,0x00,0x00,0xfe,0x00,0x00,0x00,
0x00,0x00,0x00,0x00,0x00,0x00,0x00,0x00,0x00,0x00,0xe0,0xff,0x3f,0x00,0x00,
0x00,0x00,0x00,0x00,0x00,0x00,0x00,0x00,0x00,0x00,0x00,0xf8,0xff,0x0f,0x00,
0x00,0x00,0x00,0x00,0x00,0x00,0x00,0x00,0x00,0x00,0x00,0x00,0xf0,0xff,0x01,
0x00,0x00,0x00,0x00,0x00,0x00,0x00,0x00,0x00,0x00,0x00,0x00,0x00,0x00,0x0f,
0x00,0x00,0x00,0x00,0x00,0x00,0x00,0x00,0x00,0x00,0x00,0x00,0x00,0x00,0x00,
0x00,0x00,0x00,0x00,0x00,0x00,0x00,0x00,0x00,0x00,0x00,0x00,0x00,0x00,0x00,
0x00,0x00,0x00,0x00,0x00,0x00,0x00,0x00,0x00,0x00,0x00,0x00,0x00,0x00,0x00,
0x00,0x00,0x00,0x00,0x00,0x00,0x00,0x00,0x00,0x00,0x00,0x00,0x00,0x00,0x00,
0x00,0x00,0x00,0x00,0x00,0x00,0x00,0x00,0x00,0x00,0x00,0x00,0x00,0x00,0x00,
0x00,0x00,0x00,0x00,0x00,0x00,0x00,0x00,0x00,0x00,0x00,0x00,0x00,0x00,0x00,
0x00,0x00,0x00,0x00,0x00,0x00,0x00,0x00,0x00,0x00,0x00,0x00,0x00,0x00,0x00,
0x00,0x00,0x00,0x00,0x00,0x00,0x00,0x00,0x00,0x00,0x00,0x00,0x00,0x00,0x00,
0x00,0x00,0x00,0x00,0x00,0x00,0x00,0x00,0x00,0x00,0x00,0x00,0x00,0x00,0x00,
0x00,0x00,0x00,0x00,0x00,0x00,0x00,0x00,0x00,0x00,0x00,0x00,0x00,0x00,0x00,
0x00,0x00,0x00,0x00,0x00,0x00,0x00,0x00,0x00,0x00,0x00,0x00,0x00,0x00,0x00,
0x00,0x00,0x00,0x00,0x00,0x00,0x00,0x00,0x00,0x00,0x00,0x00,0x00,0x00,0x00,
0x00,0x00,0x00,0x00,0x00,0x00,0x00,0x00,0x00,0x00,0x00,0x00,0x00,0x00,0x00,
0x00,0x00,0x00,0x00,0x00,0x00,0x00,0x00,0x00,0x00,0x00,0x00,0x00,0x00,0x00,
0x00,0x00,0x00,0x00,0x00,0x00,0x00,0x00,0x00,0x00,0x00,0x00,0x00,0x00,0x00,
0x00,0x00,0x00,0x00,0x00,0x00,0x00,0x00,0x00,0x00,0x00,0x00,0x00,0x00,0x00,
0x00,0x00,0x00,0x00,0x00,0x00,0x00,0x00,0x00,0x00,0x00,0x00,0x00,0x00,0x00,
0x00,0x00,0x00,0x00,0x00,0x00,0x00,0x00,0x00,0x00,0x00,0x00,0x00,0x00,0x00,
0x00,0x00,0x00,0x00,0x00,0x00,0x00,0x00,0x00,0x00,0x00,0x00,0x00,0x00,0x00,
0x00,0x00,0x00,0x00,0x00,0x00,0x00,0x00,0x00,0x00,0x00,0x00,0x00,0x00,0x00,
0x00,0x00,0x00,0x00,0x00,0x00,0x00,0x00,0x00,0x00,0x00,0x00,0x00,0x00,0x00,
0x00,0x00,0x00,0x00,0x00,0x00,0x00,0x00,0x00,0x00,0x00,0x00,0x30,0x00,0x00,
0x00,0x00,0x00,0x00,0x00,0x00,0x00,0x00,0x00,0x00,0x00,0x00,0x00,0x70,0x00,
0x00,0x00,0x00,0x00,0x00,0x00,0x00,0x00,0x00,0x00,0x00,0x00,0x00,0x00,0xe0,
0x07,0x00,0x00,0x00,0x00,0x00,0x00,0x00,0x00,0x00,0x00,0x00,0x00,0x00,0x00,
0x80,0x1f,0x00,0x00,0x00,0x00,0x00,0x00,0x00,0x01,0x00,0x00,0x00,0x00,0x00,
0x00,0x00,0x7e,0x00,0x00,0x00,0x00,0x00,0x00,0x00,0x03,0x00,0x00,0x00,0x00,
0x00,0x00,0x00,0xf8,0x01,0x00,0x00,0x00,0x00,0x00,0x00,0x07,0x00,0x00,0x00,
0x00,0x00,0x00,0x00,0x80,0x07,0x00,0x00,0x00,0x00,0x00,0x00,0x0f,0x00,0x00,
0x00,0x00,0x00,0x00,0x00,0x00,0x00,0x00,0x00,0x00,0x00,0x00,0x00,0x3f,0x40,
0x00,0x00,0x00,0x00,0x00,0x40,0x00,0x00,0x00,0x00,0x00,0x00,0x00,0x00,0x7f,
0xc0,0x01,0x00,0x00,0x00,0x00,0x60,0x00,0x00,0x00,0x00,0x00,0x00,0x00,0x00,
0xfe,0x03,0x07,0x00,0x00,0x00,0x00,0x60,0x00,0x30,0x80,0x03,0x00,0x00,0x00,
0x00,0xfc,0x7f,0x1e,0x00,0x00,0x00,0x00,0x70,0x00,0xe0,0xf9,0x1f,0x1c,0x00,
0x00,0x00,0xf0,0xff,0xff,0x00,0x00,0x00,0x80,0xf0,0x00,0x80,0xff,0xff,0x0f,
0x00,0x00,0x00,0xe0,0xff,0xff,0x07,0x00,0x00,0xc0,0xff,0x00,0x00,0xf0,0xff,
0x01,0x00,0x00,0x00,0x80,0xff,0xff,0x7f,0x00,0x00,0xe0,0xff,0x01,0x00,0x00,
0x00,0x00,0x00,0x00,0x00,0x00,0xfe,0xff,0xff,0x0f,0x00,0xe0,0xff,0x07,0x00,
0x00,0x00,0x00,0x00,0x00,0x00,0x00,0xf8,0xff,0xff,0x3f,0x00,0xf0,0xff,0x01,
0x00,0x1c,0x00,0x00,0x00,0x00,0x00,0x00,0x80,0xff,0xff,0x7f,0x00,0xf8,0xff,
0x01,0x80,0x1f,0x00,0x00,0x00,0x00,0x00,0x00,0x00,0xc0,0xff,0x7f,0x00,0xfc,
0xff,0x03,0xc0,0x3f,0x00,0x00,0x00,0x00,0x00,0x00,0x00,0x80,0xff,0xff,0x00,
0xfc,0xff,0x03,0xf0,0x7f,0x00,0x00,0x00,0x00,0x00,0x00,0x00,0x80,0xff,0xff,
0x07,0xf8,0xff,0x07,0xfc,0xff,0x00,0x00,0x00,0x00,0x00,0x00,0x00,0x00,0xff,
0x07,0x00,0xe0,0xfe,0x0f,0xfe,0xff,0x01,0x00,0x00,0x00,0x00,0x00,0x00,0x00,
0xfe,0x3f,0x00,0x00,0xfe,0x0f,0xfc,0xff,0x07,0x00,0x00,0x00,0x00,0x00,0x00,
0x00,0xfc,0xff,0xff,0x00,0xff,0x1f,0xf0,0xff,0x7f,0x00,0x00,0x00,0x00,0x00,
0x00,0x00,0xf8,0xff,0xff,0x01,0xff,0x3f,0x00,0xfc,0xff,0x00,0x00,0x00,0x00,
0x00,0x00,0x00,0xf0,0xff,0xff,0x03,0xfe,0x3f,0x00,0x3c,0xff,0x01,0x00,0x00,
0x00,0x00,0x00,0x00,0xf0,0xff,0xff,0x03,0xfe,0x7f,0x00,0x38,0xfe,0x03,0x00,
0x00,0x00,0x00,0x00,0x00,0xf0,0xff,0xff,0x07,0xf8,0xff,0x00,0x78,0xfc,0x00,
0x00,0x00,0x00,0x00,0x00,0x00,0xf0,0xff,0xff,0x03,0xe0,0xff,0x01,0x70,0xf0,
0x00,0x00,0x00,0x00,0x00,0x00,0x00,0xe0,0xff,0x7f,0x00,0xc0,0xff,0x03,0xe0,
0x7c,0x00,0x00,0x00,0x00,0x00,0x00,0x00,0x80,0xff,0x01,0x00,0x00,0xff,0x0f,
0xc0,0x3f,0x00,0x00
};
